# xmcd
#
# Track frame offsets: 
#        150
#        21391
#        39285
#        60309
#        81115
#        103030
#        124489
#        147862
#        168620
#        189698
#        208556
#
# Disc length: 3032 seconds
#
# Revision: 0
# Processed by: cddbd v1.5.2PL0 Copyright (c) Steve Scherf et al.
# Submitted via: ExactAudioCopy v1.3
#
DISCID=990bd60b
DTITLE=O. B. Buchana - Face Down
DYEAR=2019
DGENRE=Blues
TTITLE0=I Need a Drink
TTITLE1=My Outside Woman
TTITLE2=Face Down
TTITLE3=Step Till the Morning Light
TTITLE4=My Baby is a Sweet Thang
TTITLE5=Just Cruzin'
TTITLE6=I'm Whipped Again
TTITLE7=I Hump It
TTITLE8=Hot Doggin' Cold Lovin'
TTITLE9=Zydeco Lady
TTITLE10=Zydeco Lady (Club Mix)
EXTD=
EXTT0=
EXTT1=
EXTT2=
EXTT3=
EXTT4=
EXTT5=
EXTT6=
EXTT7=
EXTT8=
EXTT9=
EXTT10=
PLAYORDER=
